#define desk_pressed_width 12
#define desk_pressed_height 12
static unsigned char desk_pressed_bits[] = {
   0x00, 0x00, 0x80, 0x01, 0x80, 0x03, 0xc0, 0x07, 0xec, 0x07, 0xfc, 0x01,
   0xf8, 0x00, 0x70, 0x00, 0xe8, 0x00, 0xc4, 0x00, 0x02, 0x00, 0x00, 0x00 };
