#define shade_pressed_width 12
#define shade_pressed_height 12
static unsigned char shade_pressed_bits[] = {
   0x00, 0x00, 0xf0, 0x00, 0xf8, 0x01, 0xfc, 0x03, 0x6e, 0x07, 0x66, 0x06,
   0x62, 0x04, 0x60, 0x00, 0x60, 0x00, 0x60, 0x00, 0x60, 0x00, 0x00, 0x00 };
